{
  "accessors": [
    {
      "bufferView": 2,
      "componentType": 5126,
      "count": 65532,
      "max": [
        16.983455657958984,
        7.2751178741455078,
        3.8465118408203125
      ],
      "min": [
        -15.292314529418945,
        -16.086629867553711,
        0.16087150573730469
      ],
      "type": "VEC3"
    },
    {
      "bufferView": 2,
      "byteOffset": 786384,
      "componentType": 5126,
      "count": 65532,
      "max": [
        0.99655407667160034,
        0.98099344968795776,
        0.99999982118606567
      ],
      "min": [
        -0.99451649188995361,
        -0.95975542068481445,
        0.020157812163233757
      ],
      "type": "VEC3"
    },
    {
      "bufferView": 3,
      "componentType": 5126,
      "count": 65532,
      "max": [
        1,
        0.63483810424804688,
        0.99976342916488647,
        -1
      ],
      "min": [
        0.021751303225755692,
        -0.3758087158203125,
        -0.99910825490951538,
        -1
      ],
      "type": "VEC4"
    },
    {
      "bufferView": 1,
      "componentType": 5126,
      "count": 65532,
      "max": [
        0.95968598127365112,
        0.9926760196685791
      ],
      "min": [
        0.00048799999058246613,
        0.00098000001162290573
      ],
      "type": "VEC2"
    },
    {
      "bufferView": 0,
      "componentType": 5125,
      "count": 353286,
      "max": [
        65531
      ],
      "min": [
        0
      ],
      "type": "SCALAR"
    },
    {
      "bufferView": 2,
      "byteOffset": 1572768,
      "componentType": 5126,
      "count": 65532,
      "max": [
        16.962089538574219,
        11.034821510314941,
        8.5824213027954102
      ],
      "min": [
        -15.18608283996582,
        -13.75103759765625,
        0.01215362548828125
      ],
      "type": "VEC3"
    },
    {
      "bufferView": 2,
      "byteOffset": 2359152,
      "componentType": 5126,
      "count": 65532,
      "max": [
        0.99563467502593994,
        0.99699360132217407,
        0.99999719858169556
      ],
      "min": [
        -0.97463417053222656,
        -0.99996763467788696,
        -0.62723547220230103
      ],
      "type": "VEC3"
    },
    {
      "bufferView": 3,
      "byteOffset": 1048512,
      "componentType": 5126,
      "count": 65532,
      "max": [
        1,
        0.95463299751281738,
        0.99737244844436646,
        -1
      ],
      "min": [
        -0.99999803304672241,
        -0.97464281320571899,
        -0.9999772310256958,
        -1
      ],
      "type": "VEC4"
    },
    {
      "bufferView": 1,
      "byteOffset": 524256,
      "componentType": 5126,
      "count": 65532,
      "max": [
        0.97221297025680542,
        0.99951201677322388
      ],
      "min": [
        0.00048799999058246613,
        0.0014659999869763851
      ],
      "type": "VEC2"
    },
    {
      "bufferView": 0,
      "byteOffset": 1413144,
      "componentType": 5125,
      "count": 334731,
      "max": [
        65531
      ],
      "min": [
        0
      ],
      "type": "SCALAR"
    },
    {
      "bufferView": 2,
      "byteOffset": 3145536,
      "componentType": 5126,
      "count": 65532,
      "max": [
        16.857172012329102,
        5.345667839050293,
        8.9450464248657227
      ],
      "min": [
        -11.39556884765625,
        -13.873466491699219,
        0.11630439758300781
      ],
      "type": "VEC3"
    },
    {
      "bufferView": 2,
      "byteOffset": 3931920,
      "componentType": 5126,
      "count": 65532,
      "max": [
        0.99979472160339355,
        0.99999117851257324,
        0.9999997615814209
      ],
      "min": [
        -0.99997437000274658,
        -0.99996060132980347,
        -0.99869495630264282
      ],
      "type": "VEC3"
    },
    {
      "bufferView": 3,
      "byteOffset": 2097024,
      "componentType": 5126,
      "count": 65532,
      "max": [
        1,
        0.99966973066329956,
        1,
        -1
      ],
      "min": [
        -1,
        -0.99958735704421997,
        -1,
        -1
      ],
      "type": "VEC4"
    },
    {
      "bufferView": 1,
      "byteOffset": 1048512,
      "componentType": 5126,
      "count": 65532,
      "max": [
        0.99908101558685303,
        0.99951201677322388
      ],
      "min": [
        0.00048799999058246613,
        0.0011630000080913305
      ],
      "type": "VEC2"
    },
    {
      "bufferView": 0,
      "byteOffset": 2752068,
      "componentType": 5125,
      "count": 345135,
      "max": [
        65531
      ],
      "min": [
        0
      ],
      "type": "SCALAR"
    },
    {
      "bufferView": 2,
      "byteOffset": 4718304,
      "componentType": 5126,
      "count": 64660,
      "max": [
        16.733806610107422,
        10.924985885620117,
        10.095765113830566
      ],
      "min": [
        -14.095436096191406,
        -15.519075393676758,
        0.0081195831298828125
      ],
      "type": "VEC3"
    },
    {
      "bufferView": 2,
      "byteOffset": 5494224,
      "componentType": 5126,
      "count": 64660,
      "max": [
        0.99997687339782715,
        0.99996930360794067,
        0.99999809265136719
      ],
      "min": [
        -0.99998950958251953,
        -0.99999916553497314,
        -0.9990311861038208
      ],
      "type": "VEC3"
    },
    {
      "bufferView": 3,
      "byteOffset": 3145536,
      "componentType": 5126,
      "count": 64660,
      "max": [
        1,
        0.99979913234710693,
        1,
        1
      ],
      "min": [
        -1,
        -0.99426174163818359,
        -1,
        -1
      ],
      "type": "VEC4"
    },
    {
      "bufferView": 1,
      "byteOffset": 1572768,
      "componentType": 5126,
      "count": 64660,
      "max": [
        0.99922299385070801,
        0.99951201677322388
      ],
      "min": [
        0.00048799999058246613,
        0.00080400001024827361
      ],
      "type": "VEC2"
    },
    {
      "bufferView": 0,
      "byteOffset": 4132608,
      "componentType": 5125,
      "count": 283857,
      "max": [
        64659
      ],
      "min": [
        0
      ],
      "type": "SCALAR"
    }
  ],
  "asset": {
    "extras": {
      "author": "JackMGlauser (https://sketchfab.com/JackMGlauser)",
      "license": "CC-BY-4.0 (http://creativecommons.org/licenses/by/4.0/)",
      "source": "https://sketchfab.com/models/b0f1eb38b3274af1b30fade391925d11",
      "title": "Dunguaire Castle, Kinvara, Ireland"
    },
    "generator": "Sketchfab-3.18.5",
    "version": "2.0"
  },
  "bufferViews": [
    {
      "buffer": 0,
      "byteLength": 5268036,
      "byteOffset": 0,
      "name": "floatBufferViews",
      "target": 34963
    },
    {
      "buffer": 0,
      "byteLength": 2090048,
      "byteOffset": 5268036,
      "byteStride": 8,
      "name": "floatBufferViews",
      "target": 34962
    },
    {
      "buffer": 0,
      "byteLength": 6270144,
      "byteOffset": 7358084,
      "byteStride": 12,
      "name": "floatBufferViews",
      "target": 34962
    },
    {
      "buffer": 0,
      "byteLength": 4180096,
      "byteOffset": 13628228,
      "byteStride": 16,
      "name": "floatBufferViews",
      "target": 34962
    }
  ],
  "buffers": [
    {
      "byteLength": 17808324,
      "uri": "scene.bin"
    }
  ],
  "images": [
    {
      "uri": "textures/model_Material_u1_v1_baseColor.jpeg"
    }
  ],
  "materials": [
    {
      "doubleSided": true,
      "emissiveFactor": [
        0,
        0,
        0
      ],
      "name": "model_Material_u1_v1",
      "pbrMetallicRoughness": {
        "baseColorFactor": [
          1,
          1,
          1,
          1
        ],
        "baseColorTexture": {
          "index": 0,
          "texCoord": 0
        },
        "metallicFactor": 0,
        "roughnessFactor": 1
      }
    }
  ],
  "meshes": [
    {
      "primitives": [
        {
          "attributes": {
            "NORMAL": 1,
            "POSITION": 0,
            "TANGENT": 2,
            "TEXCOORD_0": 3
          },
          "indices": 4,
          "material": 0,
          "mode": 4
        }
      ]
    },
    {
      "primitives": [
        {
          "attributes": {
            "NORMAL": 6,
            "POSITION": 5,
            "TANGENT": 7,
            "TEXCOORD_0": 8
          },
          "indices": 9,
          "material": 0,
          "mode": 4
        }
      ]
    },
    {
      "primitives": [
        {
          "attributes": {
            "NORMAL": 11,
            "POSITION": 10,
            "TANGENT": 12,
            "TEXCOORD_0": 13
          },
          "indices": 14,
          "material": 0,
          "mode": 4
        }
      ]
    },
    {
      "primitives": [
        {
          "attributes": {
            "NORMAL": 16,
            "POSITION": 15,
            "TANGENT": 17,
            "TEXCOORD_0": 18
          },
          "indices": 19,
          "material": 0,
          "mode": 4
        }
      ]
    }
  ],
  "nodes": [
    {
      "children": [
        1
      ],
      "name": "RootNode (gltf orientation matrix)",
      "rotation": [
        -0.70710678118654746,
        -0,
        -0,
        0.70710678118654757
      ]
    },
    {
      "children": [
        2
      ],
      "name": "RootNode (model correction matrix)"
    },
    {
      "children": [
        3,
        4,
        5,
        6
      ],
      "name": "model.obj.cleaner.materialmerger.gles"
    },
    {
      "mesh": 0,
      "name": ""
    },
    {
      "mesh": 1,
      "name": ""
    },
    {
      "mesh": 2,
      "name": ""
    },
    {
      "mesh": 3,
      "name": ""
    }
  ],
  "samplers": [
    {
      "magFilter": 9729,
      "minFilter": 9987,
      "wrapS": 10497,
      "wrapT": 10497
    }
  ],
  "scene": 0,
  "scenes": [
    {
      "name": "OSG_Scene",
      "nodes": [
        0
      ]
    }
  ],
  "textures": [
    {
      "sampler": 0,
      "source": 0
    }
  ]
}

